<svg width="286" height="221" viewBox="0 0 286 221" fill="none" xmlns="http://www.w3.org/2000/svg">
<g clip-path="url(#clip0_79_119)" filter="url(#filter0_dddddd_79_119)">
<path d="M144.778 125.535C143.865 125.926 143.257 126.52 142.953 127.317C142.666 128.106 142.661 128.954 142.938 129.862L148.215 127.598L149.027 129.464L138.947 133.789L138.135 131.922L139.902 131.164C139.339 129.371 139.455 127.781 140.251 126.396C141.039 124.995 142.239 123.949 143.848 123.259C145.474 122.561 147.061 122.249 148.61 122.323L149.995 125.51L147.526 126.759L147.061 125.689C146.962 125.461 146.86 125.316 146.753 125.254C146.641 125.176 146.412 125.148 146.067 125.17C145.738 125.185 145.309 125.306 144.778 125.534V125.535ZM140.322 136.955L139.511 135.088L149.591 130.764L150.402 132.631L145.175 134.873C145.763 135.683 146.411 136.198 147.117 136.417C147.839 136.629 148.698 136.522 149.694 136.095C150.706 135.66 151.522 134.887 152.142 133.775L154.352 134.988C153.557 136.553 152.204 137.746 150.296 138.565C146.894 140.024 144.159 139.235 142.09 136.197L140.323 136.955H140.322Z" fill="white"/>
<path d="M128.489 135.992C127.556 136.344 126.918 136.912 126.576 137.699C126.253 138.478 126.208 139.33 126.444 140.254L131.845 138.22L132.574 140.131L122.257 144.017L121.528 142.106L123.337 141.424C122.853 139.599 123.043 138.008 123.905 136.653C124.761 135.283 126.012 134.287 127.66 133.666C129.325 133.04 130.932 132.798 132.483 132.942L133.728 136.204L131.192 137.346L130.774 136.25C130.684 136.018 130.589 135.867 130.485 135.8C130.375 135.717 130.147 135.678 129.799 135.684C129.47 135.684 129.033 135.787 128.489 135.991V135.992ZM123.493 147.255L122.764 145.344L133.082 141.458L133.811 143.369L128.461 145.384C129.015 146.224 129.641 146.771 130.34 147.022C131.055 147.268 131.922 147.199 132.941 146.815C133.977 146.424 134.831 145.685 135.503 144.597L137.668 145.914C136.796 147.45 135.385 148.586 133.433 149.322C129.951 150.633 127.241 149.718 125.303 146.574L123.494 147.256L123.493 147.255Z" fill="white"/>
<path fill-rule="evenodd" clip-rule="evenodd" d="M155.6 146.374C156.008 145.969 156.668 145.969 157.075 146.374L163.979 153.232C167.211 156.441 167.211 161.645 163.979 164.856L163.979 164.856C161.199 167.616 156.849 168.054 153.569 165.903C153.559 165.897 153.549 165.89 153.539 165.882L143.467 158.752C142.997 158.42 142.888 157.773 143.222 157.307C143.557 156.841 144.208 156.733 144.677 157.065L154.733 164.184C157.184 165.781 160.429 165.451 162.504 163.391C164.922 160.989 164.922 157.097 162.504 154.697L162.504 154.697L155.6 147.839C155.193 147.434 155.193 146.778 155.6 146.374Z" fill="white"/>
<path d="M118.646 163.927C164.253 163.927 163.241 133.923 163.241 119.135C159.169 151.101 152.713 157.909 118.646 163.927Z" fill="white"/>
<path d="M159.169 124.364L163.286 118.641L166.618 124.364H159.169Z" fill="white"/>
<path fill-rule="evenodd" clip-rule="evenodd" d="M163.317 118.001C163.537 118.011 163.735 118.132 163.845 118.32L167.176 124.043C167.292 124.241 167.292 124.486 167.177 124.684C167.061 124.883 166.848 125.005 166.618 125.005H163.849C163.683 131.814 162.831 140.144 158.605 147.398C153.008 157.003 141.604 164.568 118.646 164.568C118.311 164.568 118.032 164.314 118.003 163.983C117.973 163.652 118.203 163.354 118.533 163.296C135.578 160.284 145.51 157.099 151.731 150.812C157.131 145.354 159.816 137.473 161.764 125.005H159.169C158.927 125.005 158.705 124.871 158.594 124.657C158.484 124.443 158.503 124.186 158.643 123.991L162.761 118.268C162.889 118.091 163.098 117.99 163.317 118.001ZM162.35 129.256C160.432 139.547 157.703 146.605 152.652 151.711C147.304 157.116 139.427 160.259 127.433 162.869C144.217 161.184 152.925 154.584 157.487 146.755C160.726 141.196 161.916 134.961 162.35 129.256ZM163.874 123.722H165.498L163.888 120.956C163.889 121.837 163.887 122.762 163.874 123.722ZM162.336 121.064C162.213 121.972 162.088 122.858 161.959 123.722H160.424L162.336 121.064Z" fill="white"/>
<path d="M160.584 160.583C160.714 160.433 160.826 160.275 160.922 160.107C161.021 159.937 161.102 159.764 161.165 159.591L161.999 160.141C161.913 160.328 161.813 160.513 161.697 160.697C161.582 160.88 161.453 161.055 161.31 161.22C161.039 161.531 160.736 161.768 160.399 161.93C160.059 162.089 159.693 162.167 159.303 162.164C158.909 162.158 158.499 162.062 158.071 161.875C157.64 161.685 157.197 161.396 156.742 161.007L155.176 159.667C154.718 159.275 154.363 158.882 154.11 158.487C153.858 158.092 153.698 157.703 153.631 157.32C153.564 156.937 153.586 156.568 153.697 156.213C153.808 155.852 153.999 155.516 154.269 155.204C154.415 155.036 154.569 154.886 154.732 154.755C154.893 154.62 155.065 154.491 155.249 154.367L155.925 155.108C155.762 155.196 155.602 155.301 155.447 155.423C155.292 155.54 155.148 155.674 155.015 155.827C154.845 156.023 154.733 156.234 154.68 156.459C154.626 156.685 154.634 156.922 154.703 157.171C154.771 157.419 154.905 157.68 155.105 157.954C155.304 158.228 155.573 158.51 155.912 158.799L157.488 160.147C157.826 160.437 158.147 160.66 158.449 160.815C158.751 160.97 159.032 161.062 159.293 161.089C159.553 161.117 159.791 161.087 160.008 161.001C160.224 160.915 160.416 160.776 160.584 160.583ZM157.021 157.217L157.609 157.72L155.017 160.711L154.429 160.208L157.021 157.217ZM158.249 158.268L158.832 158.767L156.24 161.757L155.656 161.258L158.249 158.268Z" fill="white"/>
<path fill-rule="evenodd" clip-rule="evenodd" d="M154.382 155.301C154.124 155.598 153.944 155.917 153.84 156.256L153.84 156.257C153.736 156.589 153.715 156.934 153.778 157.295C153.841 157.655 153.992 158.025 154.236 158.407C154.428 158.708 154.685 159.011 155.006 159.315L155.557 158.68C155.329 158.464 155.137 158.251 154.984 158.041C154.777 157.757 154.633 157.48 154.559 157.21C154.484 156.94 154.475 156.678 154.535 156.426C154.595 156.174 154.719 155.942 154.902 155.73C155.041 155.57 155.192 155.429 155.356 155.306C155.465 155.22 155.577 155.142 155.691 155.072L155.227 154.562C155.086 154.661 154.953 154.763 154.829 154.868L154.827 154.869L154.826 154.87C154.67 154.995 154.522 155.139 154.382 155.301ZM155.777 158.879L155.226 159.514C155.242 159.528 155.257 159.541 155.273 159.555L155.588 159.825L156.139 159.189L155.815 158.911C155.802 158.901 155.79 158.89 155.777 158.879ZM156.334 158.965L156.009 158.687C155.997 158.676 155.984 158.666 155.972 158.655L157.037 157.426L157.399 157.736L156.334 158.965ZM156.56 159.158L157.819 157.705L157.006 157.009L155.751 158.455C155.539 158.253 155.364 158.057 155.225 157.867C155.033 157.604 154.909 157.358 154.846 157.131C154.783 156.904 154.778 156.692 154.825 156.493C154.872 156.294 154.972 156.104 155.128 155.923C155.254 155.779 155.39 155.651 155.537 155.541L155.538 155.54L155.54 155.539C155.689 155.422 155.841 155.322 155.996 155.238L156.163 155.148L155.272 154.172L155.165 154.244C154.977 154.371 154.801 154.503 154.637 154.641C154.467 154.778 154.307 154.934 154.156 155.108C153.874 155.433 153.672 155.787 153.555 156.17C153.437 156.548 153.413 156.941 153.484 157.345C153.555 157.751 153.723 158.158 153.985 158.566C154.194 158.894 154.471 159.219 154.811 159.54L154.219 160.223L155.032 160.919L155.62 160.242L156.034 160.596L155.446 161.274L156.255 161.966L156.846 161.285C157.24 161.599 157.628 161.842 158.01 162.01L158.011 162.01C158.453 162.204 158.884 162.306 159.301 162.312L159.302 162.312C159.714 162.315 160.101 162.233 160.462 162.064L160.463 162.063L160.464 162.063C160.821 161.891 161.14 161.641 161.422 161.316C161.57 161.145 161.704 160.965 161.824 160.775C161.942 160.587 162.046 160.396 162.134 160.202L162.187 160.088L161.09 159.363L161.025 159.54C160.965 159.705 160.888 159.87 160.793 160.033L160.793 160.034C160.702 160.193 160.594 160.343 160.471 160.486C160.318 160.663 160.145 160.787 159.953 160.864C159.761 160.94 159.547 160.967 159.308 160.942C159.071 160.917 158.808 160.833 158.517 160.684C158.287 160.565 158.043 160.405 157.786 160.201L159.042 158.751L158.233 158.059L156.973 159.512L156.56 159.158ZM156.365 159.382L155.814 160.018L156.228 160.372L156.779 159.736L156.365 159.382ZM157.005 159.929L156.454 160.565L156.811 160.871L157.362 160.235L157.005 159.929ZM157.557 160.011L158.622 158.782L158.265 158.476L157.199 159.705L157.557 160.011ZM157.591 160.425L157.04 161.06C157.415 161.359 157.779 161.585 158.131 161.74C158.544 161.92 158.934 162.01 159.305 162.016C159.673 162.019 160.016 161.945 160.335 161.796C160.651 161.644 160.939 161.421 161.197 161.123C161.335 160.964 161.46 160.795 161.571 160.618C161.659 160.478 161.739 160.336 161.809 160.193L161.236 159.815C161.183 159.938 161.121 160.06 161.052 160.181L161.051 160.181L160.922 160.107L161.052 160.18L161.052 160.181C160.951 160.356 160.832 160.523 160.697 160.679C160.515 160.888 160.304 161.043 160.063 161.139C159.821 161.235 159.558 161.266 159.277 161.236C158.994 161.207 158.694 161.108 158.38 160.946C158.127 160.816 157.864 160.642 157.591 160.425ZM156.617 161.095L156.259 160.789L155.866 161.242L156.224 161.548L156.617 161.095ZM155.394 160.049L155.079 159.779C155.063 159.766 155.047 159.752 155.032 159.739L154.639 160.192L155.001 160.502L155.394 160.049Z" fill="white"/>
</g>
<defs>
<filter id="filter0_dddddd_79_119" x="0.0236664" y="0.0236664" width="287.953" height="287.953" filterUnits="userSpaceOnUse" color-interpolation-filters="sRGB">
<feFlood flood-opacity="0" result="BackgroundImageFix"/>
<feColorMatrix in="SourceAlpha" type="matrix" values="0 0 0 0 0 0 0 0 0 0 0 0 0 0 0 0 0 0 127 0" result="hardAlpha"/>
<feOffset/>
<feGaussianBlur stdDeviation="1.40448"/>
<feColorMatrix type="matrix" values="0 0 0 0 0.380392 0 0 0 0 0.647059 0 0 0 0 1 0 0 0 1 0"/>
<feBlend mode="normal" in2="BackgroundImageFix" result="effect1_dropShadow_79_119"/>
<feColorMatrix in="SourceAlpha" type="matrix" values="0 0 0 0 0 0 0 0 0 0 0 0 0 0 0 0 0 0 127 0" result="hardAlpha"/>
<feOffset/>
<feGaussianBlur stdDeviation="2.80896"/>
<feColorMatrix type="matrix" values="0 0 0 0 0.380392 0 0 0 0 0.647059 0 0 0 0 1 0 0 0 1 0"/>
<feBlend mode="normal" in2="effect1_dropShadow_79_119" result="effect2_dropShadow_79_119"/>
<feColorMatrix in="SourceAlpha" type="matrix" values="0 0 0 0 0 0 0 0 0 0 0 0 0 0 0 0 0 0 127 0" result="hardAlpha"/>
<feOffset/>
<feGaussianBlur stdDeviation="9.83136"/>
<feColorMatrix type="matrix" values="0 0 0 0 0.380392 0 0 0 0 0.647059 0 0 0 0 1 0 0 0 1 0"/>
<feBlend mode="normal" in2="effect2_dropShadow_79_119" result="effect3_dropShadow_79_119"/>
<feColorMatrix in="SourceAlpha" type="matrix" values="0 0 0 0 0 0 0 0 0 0 0 0 0 0 0 0 0 0 127 0" result="hardAlpha"/>
<feOffset/>
<feGaussianBlur stdDeviation="19.6627"/>
<feColorMatrix type="matrix" values="0 0 0 0 0.380392 0 0 0 0 0.647059 0 0 0 0 1 0 0 0 1 0"/>
<feBlend mode="normal" in2="effect3_dropShadow_79_119" result="effect4_dropShadow_79_119"/>
<feColorMatrix in="SourceAlpha" type="matrix" values="0 0 0 0 0 0 0 0 0 0 0 0 0 0 0 0 0 0 127 0" result="hardAlpha"/>
<feOffset/>
<feGaussianBlur stdDeviation="33.7075"/>
<feColorMatrix type="matrix" values="0 0 0 0 0.380392 0 0 0 0 0.647059 0 0 0 0 1 0 0 0 1 0"/>
<feBlend mode="normal" in2="effect4_dropShadow_79_119" result="effect5_dropShadow_79_119"/>
<feColorMatrix in="SourceAlpha" type="matrix" values="0 0 0 0 0 0 0 0 0 0 0 0 0 0 0 0 0 0 127 0" result="hardAlpha"/>
<feOffset/>
<feGaussianBlur stdDeviation="58.9882"/>
<feColorMatrix type="matrix" values="0 0 0 0 0.380392 0 0 0 0 0.647059 0 0 0 0 1 0 0 0 1 0"/>
<feBlend mode="normal" in2="effect5_dropShadow_79_119" result="effect6_dropShadow_79_119"/>
<feBlend mode="normal" in="SourceGraphic" in2="effect6_dropShadow_79_119" result="shape"/>
</filter>
<clipPath id="clip0_79_119">
<rect width="52" height="52" fill="white" transform="translate(118 118)"/>
</clipPath>
</defs>
</svg>
